<svg xmlns="http://www.w3.org/2000/svg" viewBox="0 0 100 100">
  <defs>
    <linearGradient id="pinkGold" x1="0%" y1="0%" x2="100%" y2="100%">
      <stop offset="0%" stop-color="#f472b6" />
      <stop offset="100%" stop-color="#fbbf24" />
    </linearGradient>
  </defs>
  
  <!-- Lotus Base -->
  <path
    d="M 50 85 Q 20 80 15 55 Q 35 60 50 85"
    fill="url(#pinkGold)"
    opacity="0.8"
  />
  <path
    d="M 50 85 Q 80 80 85 55 Q 65 60 50 85"
    fill="url(#pinkGold)"
    opacity="0.8"
  />
  <path
    d="M 50 85 Q 35 65 30 40 Q 50 55 50 85"
    fill="url(#pinkGold)"
    opacity="0.9"
  />
  <path
    d="M 50 85 Q 65 65 70 40 Q 50 55 50 85"
    fill="url(#pinkGold)"
    opacity="0.9"
  />
  <path
    d="M 50 85 Q 45 55 50 30 Q 55 55 50 85"
    fill="url(#pinkGold)"
  />

  <!-- Woman Silhouette (Abstracted) -->
  <path
    d="M 50 65 Q 40 45 42 25 Q 50 15 58 25 Q 60 45 50 65"
    fill="none"
    stroke="white"
    stroke-width="2.5"
    opacity="0.9"
  />
  <!-- Hair Flow -->
  <path
    d="M 58 25 Q 70 30 68 50 Q 65 65 75 70"
    fill="none"
    stroke="white"
    stroke-width="2.5"
    stroke-linecap="round"
    opacity="0.9"
  />
</svg>